<?xml version="1.0" standalone="no"?>
<!DOCTYPE svg PUBLIC "-//W3C//DTD SVG 20010904//EN"
 "http://www.w3.org/TR/2001/REC-SVG-20010904/DTD/svg10.dtd">
<svg version="1.0" xmlns="http://www.w3.org/2000/svg"
 width="235.000000pt" height="114.000000pt" viewBox="0 0 235.000000 114.000000"
 preserveAspectRatio="xMidYMid meet">

<g transform="translate(0.000000,114.000000) scale(0.100000,-0.100000)"
fill="#000000" stroke="none">
<path d="M830 1060 c-425 -23 -543 -34 -704 -66 l-28 -6 4 -235 4 -235 27 -22
c27 -21 27 -24 27 -136 0 -63 -5 -132 -11 -154 -14 -49 -9 -52 91 -55 l80 -1
0 389 c0 258 4 392 10 396 6 4 242 9 525 12 410 5 517 4 530 -7 13 -11 15 -63
15 -401 l0 -389 194 0 193 0 5 44 c10 82 72 136 158 136 77 0 133 -47 152
-128 l13 -52 50 0 c72 0 82 11 90 102 8 87 5 91 -75 101 -34 4 -51 13 -72 38
-40 48 -28 63 46 55 l61 -7 -30 25 c-16 13 -80 43 -140 66 -105 38 -117 46
-230 143 -65 56 -120 107 -122 113 -2 6 5 14 17 17 15 4 20 13 20 37 0 43 -38
78 -172 157 l-105 63 -234 4 c-129 2 -304 1 -389 -4z m815 -301 c22 -10 89
-66 150 -124 l110 -105 -65 0 c-36 0 -143 3 -237 7 l-173 6 0 117 c0 64 3 120
7 124 13 13 167 -6 208 -25z"/>
<path d="M488 933 l-158 -4 0 -389 0 -390 63 0 62 -1 20 -42 c52 -110 210
-108 261 2 l19 40 68 1 67 0 0 395 0 395 -122 -2 c-68 -1 -194 -4 -280 -5z
m330 -255 l-3 -93 -207 -3 -208 -2 0 95 0 95 210 0 211 0 -3 -92z m-298 -570
c0 -12 57 -38 85 -38 26 0 85 28 85 40 0 4 7 15 15 26 9 12 14 14 15 6 0 -8
-15 -29 -34 -48 -29 -29 -41 -34 -81 -34 -40 0 -52 5 -81 34 -19 19 -34 40
-34 48 1 14 30 -19 30 -34z"/>
<path d="M410 675 l0 -85 198 2 197 3 3 83 3 82 -201 0 -200 0 0 -85z"/>
<path d="M907 933 c-2 -4 -5 -182 -6 -395 l-2 -388 240 0 241 0 2 386 c2 249
-1 388 -7 392 -15 10 -462 15 -468 5z"/>
<path d="M2100 427 c0 -27 48 -59 94 -64 l46 -6 -11 31 c-8 24 -20 34 -47 42
-51 14 -82 13 -82 -3z"/>
<path d="M1872 300 c-69 -42 -91 -128 -51 -200 73 -130 273 -79 273 69 0 28
-8 60 -20 80 -38 65 -137 90 -202 51z m128 -25 c40 -21 60 -53 60 -98 0 -74
-44 -117 -119 -117 -99 0 -146 124 -73 192 44 41 83 48 132 23z"/>
<path d="M1894 261 c-36 -22 -58 -75 -48 -115 10 -41 59 -76 106 -76 30 0 46
7 69 29 84 85 -26 226 -127 162z"/>
</g>
</svg>
